<?xml version="1.0" standalone="no"?>
<!DOCTYPE svg PUBLIC "-//W3C//DTD SVG 20010904//EN"
 "http://www.w3.org/TR/2001/REC-SVG-20010904/DTD/svg10.dtd">
<svg version="1.0" xmlns="http://www.w3.org/2000/svg"
 width="700.000000pt" height="700.000000pt" viewBox="0 0 700.000000 700.000000"
 preserveAspectRatio="xMidYMid meet">
<metadata>
Created by potrace 1.11, written by Peter Selinger 2001-2013
</metadata>
<g transform="translate(0.000000,700.000000) scale(0.100000,-0.100000)"
fill="#000000" stroke="none">
<path d="M3290 6994 c-19 -2 -87 -9 -150 -15 -215 -20 -481 -74 -685 -139
-540 -173 -994 -446 -1399 -840 -589 -574 -945 -1310 -1038 -2145 -17 -154
-17 -556 0 -710 90 -810 421 -1513 982 -2089 574 -589 1310 -945 2145 -1038
154 -17 556 -17 710 0 835 93 1571 449 2145 1038 561 576 892 1279 982 2089
17 154 17 556 0 710 -93 835 -449 1571 -1038 2145 -564 550 -1253 880 -2039
976 -122 14 -538 27 -615 18z m2358 -1118 c21 -21 2 -43 -49 -56 -80 -22 -186
-130 -318 -325 -91 -135 -144 -226 -134 -235 4 -3 33 -24 63 -45 435 -307 766
-743 924 -1216 84 -252 115 -431 123 -705 12 -401 -40 -683 -174 -949 -146
-289 -409 -535 -730 -681 -542 -247 -1302 -277 -2008 -79 -197 55 -424 144
-553 216 -29 16 -58 26 -65 23 -7 -4 -43 -31 -82 -59 -246 -179 -521 -290
-809 -326 -123 -15 -440 -6 -546 16 -275 56 -469 190 -541 373 -33 82 -33 224
-1 307 63 166 217 295 417 350 94 26 311 31 435 11 209 -35 347 -91 790 -314
l305 -154 63 68 c313 339 492 615 917 1414 92 173 190 358 218 410 288 542
544 942 780 1218 64 74 77 96 66 103 -8 6 -84 45 -170 88 -233 117 -508 202
-784 243 -139 20 -591 17 -729 -5 -758 -122 -1362 -504 -1615 -1021 -180 -368
-109 -719 174 -868 120 -63 209 -83 365 -82 120 0 144 3 216 27 225 75 433
293 499 522 29 101 32 105 64 105 63 0 74 -45 42 -172 -46 -179 -173 -356
-337 -469 -69 -47 -199 -105 -294 -130 -112 -31 -309 -33 -414 -5 -295 78
-528 284 -621 546 -46 128 -58 311 -31 452 81 419 447 791 1006 1021 271 112
604 196 956 244 191 25 589 23 784 -5 352 -50 653 -139 949 -280 l103 -49 137
140 c188 193 345 307 470 343 55 16 118 11 139 -10z"/>
<path d="M4842 4793 c-88 -142 -315 -512 -505 -823 -711 -1166 -1032 -1623
-1367 -1943 -56 -54 -100 -100 -98 -102 18 -17 197 -104 288 -140 643 -258
1412 -244 1966 35 165 83 271 159 394 280 290 287 413 647 397 1160 -9 263
-39 434 -120 680 -109 334 -306 654 -559 909 -93 94 -214 201 -227 201 -5 0
-81 -116 -169 -257z"/>
<path d="M1380 2329 c-80 -13 -172 -62 -219 -115 -82 -93 -107 -238 -61 -357
26 -70 108 -162 177 -199 94 -51 155 -63 318 -62 242 1 461 53 680 159 109 53
265 150 265 163 0 4 -64 38 -143 76 -606 293 -828 366 -1017 335z"/>
</g>
</svg>
